<?xml version="1.0" encoding="utf-8"?>
<!-- Generator: Adobe Illustrator 16.0.0, SVG Export Plug-In . SVG Version: 6.00 Build 0)  -->
<!DOCTYPE svg PUBLIC "-//W3C//DTD SVG 1.0//EN" "http://www.w3.org/TR/2001/REC-SVG-20010904/DTD/svg10.dtd">
<svg version="1.0" id="Layer_1" xmlns="http://www.w3.org/2000/svg" xmlns:xlink="http://www.w3.org/1999/xlink" x="0px" y="0px"
	 width="100px" height="100px" viewBox="0 0 100 100" enable-background="new 0 0 100 100" xml:space="preserve">
<path d="M83.333,83.333V16.667H66.667V10H33.333v6.667H16.667v66.666H10V90h36.667v-6.667h6.666V90H90v-6.667H83.333z
	 M36.667,83.333h-10v-6.666h10V83.333z M36.667,70h-10v-6.667h10V70z M36.667,56.667h-10V50h10V56.667z M36.667,43.333h-10v-6.666
	h10V43.333z M36.667,30h-10v-6.667h10V30z M53.333,76.667h-6.666V70h6.666V76.667z M53.333,63.333h-6.666v-6.666h6.666V63.333z
	 M53.333,50h-6.666v-6.667h6.666V50z M53.333,36.667h-6.666V30h6.666V36.667z M53.333,23.333h-6.666v-6.666h6.666V23.333z
	 M73.333,83.333h-10v-6.666h10V83.333z M73.333,70h-10v-6.667h10V70z M73.333,56.667h-10V50h10V56.667z M73.333,43.333h-10v-6.666
	h10V43.333z M73.333,30h-10v-6.667h10V30z"/>
</svg>
